<?xml version="1.0" encoding="iso-8859-1"?>
<!-- Generator: Adobe Illustrator 24.0.3, SVG Export Plug-In . SVG Version: 6.00 Build 0)  -->
<svg version="1.1" id="Layer_1" xmlns="http://www.w3.org/2000/svg" xmlns:xlink="http://www.w3.org/1999/xlink" x="0px" y="0px"
	 viewBox="0 0 280 80" style="enable-background:new 0 0 280 80;" xml:space="preserve">
<g>
	<path style="fill:#FFFFFF;" d="M45.248,49.95H22.346c-1.27,0-2.3,1.03-2.3,2.3v24.652c0,1.27-1.03,2.3-2.3,2.3H5.345
		c-1.27,0-2.3-1.03-2.3-2.3V10.098c0-1.27,1.03-2.3,2.3-2.3h40.002c5.9,0,8.701,2.9,8.701,8.901V42.05
		C54.048,48.15,51.248,49.95,45.248,49.95z"/>
	<path style="fill:#FFFFFF;" d="M93.447,25.599c4.7,0,7,2.5,7,6.9v42.403c0,1.27-1.03,2.3-2.3,2.3H85.947c-1.27,0-2.3-1.03-2.3-2.3
		V41.6c0-1.27-1.03-2.3-2.3-2.3h-1.4c-1.27,0-2.3,1.03-2.3,2.3v33.302c0,1.27-1.03,2.3-2.3,2.3H63.145c-1.27,0-2.3-1.03-2.3-2.3
		V3.098c0-1.27,1.03-2.3,2.3-2.3h12.201c1.27,0,2.3,1.03,2.3,2.3v20.165c0,1.429,1.289,2.512,2.696,2.266"/>
	<path style="fill:#FFFFFF;" d="M141.147,77.202h-24.501c-5,0-7.201-2.2-7.201-6.9V32.6c0-4.701,2.2-6.9,7.201-6.9h24.501
		c4.8,0,7.101,2.2,7.101,6.9v37.702C148.248,75.002,145.948,77.202,141.147,77.202z M129.547,39.3h-1.4c-1.27,0-2.3,1.03-2.3,2.3
		v19.702c0,1.27,1.03,2.3,2.3,2.3h1.4c1.27,0,2.3-1.03,2.3-2.3V41.6C131.847,40.33,130.817,39.3,129.547,39.3z"/>
	<path style="display:none;fill:#FFFFFF;" d="M168.345,77.202c-4.9,0-7.1-2.2-7.1-6.9V42.1c0-1.27-1.03-2.3-2.3-2.3h-0.2
		c-1.27,0-2.3-1.03-2.3-2.3V28c0-1.27,1.03-2.3,2.3-2.3h0.2c1.27,0,2.3-1.03,2.3-2.3v-7.101c0-1.27,1.03-2.3,2.3-2.3h12.201
		c1.27,0,2.3,1.03,2.3,2.3v7.101c0,1.27,1.03,2.3,2.3,2.3h1.3c1.27,0,2.3,1.03,2.3,2.3v9.5c0,1.27-1.03,2.3-2.3,2.3h-1.3
		c-1.27,0-2.3,1.03-2.3,2.3v18.701c0,1.27,1.03,2.3,2.3,2.3h2.001c1.27,0,2.3,1.03,2.3,2.3v9.501c0,1.27-1.03,2.3-2.3,2.3H168.345z"
		/>
	<path style="display:none;fill:#FFFFFF;" d="M223.945,77.202h-24.502c-5,0-7.2-2.2-7.2-6.9V32.6c0-4.701,2.2-6.9,7.2-6.9h24.502
		c4.8,0,7.101,2.2,7.101,6.9v37.702C231.045,75.002,228.745,77.202,223.945,77.202z M212.344,39.3h-1.4c-1.27,0-2.3,1.03-2.3,2.3
		v19.702c0,1.27,1.03,2.3,2.3,2.3h1.4c1.27,0,2.3-1.03,2.3-2.3V41.6C214.644,40.33,213.614,39.3,212.344,39.3z"/>
	<path style="fill:#FFFFFF;" d="M182.072,77.202h-13.058c-1.044,0-1.957-0.703-2.224-1.713l-12.387-46.903
		c-0.385-1.459,0.715-2.887,2.224-2.887h12.476c1.12,0,2.077,0.807,2.267,1.911l2.905,21.093c0.438,2.548,2.096,2.548,2.534,0
		l2.906-21.093c0.19-1.104,1.147-1.911,2.267-1.911h12.475c1.509,0,2.609,1.428,2.224,2.887L184.296,75.49
		C184.029,76.499,183.116,77.202,182.072,77.202z"/>
	<path style="fill:#FFFFFF;" d="M203.04,20.399V9.298c0-1.27,1.03-2.3,2.3-2.3h12.201c1.27,0,2.3,1.03,2.3,2.3v11.101
		c0,1.27-1.03,2.3-2.3,2.3h-12.201C204.07,22.699,203.04,21.669,203.04,20.399z M203.04,74.902V28c0-1.27,1.03-2.3,2.3-2.3h12.201
		c1.27,0,2.3,1.03,2.3,2.3v46.903c0,1.27-1.03,2.3-2.3,2.3h-12.201C204.07,77.202,203.04,76.173,203.04,74.902z"/>
	<path style="fill:#FFFFFF;" d="M259.942,77.202H236.04c-5,0-7.2-2.2-7.2-6.9V38.6c0-4.701,2.2-6.9,7.2-6.9h23.902
		c4.8,0,7.1,2.2,7.1,6.9v15.365c0,0.6-0.192,2.323-1.248,3.308l0,0c-0.433,0.444-2.604,1.728-3.722,1.728h-18.831
		c-1.27,0-2.3,1.03-2.3,2.3v4.9c0,1.27,1.03,2.3,2.3,2.3h8.4c1.27,0,2.3-1.03,2.3-2.3v-1.9c0-1.27,1.03-2.3,2.3-2.3h8.5
		c1.27,0,2.3,1.03,2.3,2.3v6.001C267.041,75.002,264.742,77.202,259.942,77.202z M254.641,42.4h-11.4c-1.27,0-2.3,1.03-2.3,2.3v0
		c0,1.27,1.03,2.3,2.3,2.3h11.4c1.27,0,2.3-1.03,2.3-2.3v0C256.941,43.43,255.911,42.4,254.641,42.4z"/>
</g>
<circle cx="28.892" cy="28.62" r="12.67"/>
<circle style="fill:#FFFFFF;" cx="28.892" cy="28.62" r="10.583"/>
<rect x="17.936" y="3.195" style="fill:#FFFFFF;" width="20.272" height="5.913"/>
<path style="fill:#FFFFFF;" d="M258.588,44.302l16.08-10.949c0.971-0.661,2.286,0.034,2.286,1.209v19.48
	c0,1.175-1.315,1.87-2.286,1.209L258.588,44.302z"/>
<path style="fill:#FFFFFF;" d="M248.262,25.555c0,2.14,1.08,6.346-0.322,7.748c-1.402,1.402-5.287,0-7.426,0
	c-4.279,0-7.748-3.469-7.748-7.748s3.469-7.748,7.748-7.748S248.262,21.276,248.262,25.555z"/>
<path style="fill:#FFFFFF;" d="M262.589,25.555c0,4.279-3.469,7.748-7.748,7.748c-2.14,0-4.498,1.402-5.9,0
	c-1.402-1.402-1.848-5.608-1.848-7.748c0-4.279,3.469-7.748,7.748-7.748C259.12,17.807,262.589,21.276,262.589,25.555z"/>
<circle cx="254.841" cy="25.575" r="5.467"/>
<circle cx="240.481" cy="25.575" r="5.467"/>
</svg>
