<svg xmlns="http://www.w3.org/2000/svg" viewBox="0 0 280 80">
  <g fill="#fff">
    <path d="M45.248 49.95H22.346a2.3 2.3 0 00-2.3 2.3v24.652a2.3 2.3 0 01-2.3 2.3H5.345a2.3 2.3 0 01-2.3-2.3V10.098a2.3 2.3 0 012.3-2.3h40.002c5.9 0 8.701 2.9 8.701 8.901V42.05c0 6.1-2.8 7.9-8.8 7.9zM93.447 25.599c4.7 0 7 2.5 7 6.9v42.403a2.3 2.3 0 01-2.3 2.3h-12.2a2.3 2.3 0 01-2.3-2.3V41.6a2.3 2.3 0 00-2.3-2.3h-1.4a2.3 2.3 0 00-2.3 2.3v33.302a2.3 2.3 0 01-2.3 2.3H63.145a2.3 2.3 0 01-2.3-2.3V3.098a2.3 2.3 0 012.3-2.3h12.201a2.3 2.3 0 012.3 2.3v20.165a2.3 2.3 0 002.696 2.266M141.147 77.202h-24.501c-5 0-7.201-2.2-7.201-6.9V32.6c0-4.701 2.2-6.9 7.201-6.9h24.501c4.8 0 7.101 2.2 7.101 6.9v37.702c0 4.7-2.3 6.9-7.101 6.9zm-11.6-37.902h-1.4a2.3 2.3 0 00-2.3 2.3v19.702a2.3 2.3 0 002.3 2.3h1.4a2.3 2.3 0 002.3-2.3V41.6a2.3 2.3 0 00-2.3-2.3zM182.072 77.202h-13.058a2.3 2.3 0 01-2.224-1.713l-12.387-46.903a2.3 2.3 0 012.224-2.887h12.476a2.3 2.3 0 012.267 1.911l2.905 21.093c.438 2.548 2.096 2.548 2.534 0l2.906-21.093a2.3 2.3 0 012.267-1.911h12.475a2.3 2.3 0 012.224 2.887L184.296 75.49a2.3 2.3 0 01-2.224 1.712zM203.04 20.399V9.298a2.3 2.3 0 012.3-2.3h12.201a2.3 2.3 0 012.3 2.3v11.101a2.3 2.3 0 01-2.3 2.3H205.34a2.3 2.3 0 01-2.3-2.3zm0 54.503V28a2.3 2.3 0 012.3-2.3h12.201a2.3 2.3 0 012.3 2.3v46.903a2.3 2.3 0 01-2.3 2.3H205.34a2.301 2.301 0 01-2.3-2.301zM259.942 77.202H236.04c-5 0-7.2-2.2-7.2-6.9V38.6c0-4.701 2.2-6.9 7.2-6.9h23.902c4.8 0 7.1 2.2 7.1 6.9v15.365c0 .6-.192 2.323-1.248 3.308-.433.444-2.604 1.728-3.722 1.728h-18.831a2.3 2.3 0 00-2.3 2.3v4.9a2.3 2.3 0 002.3 2.3h8.4a2.3 2.3 0 002.3-2.3v-1.9a2.3 2.3 0 012.3-2.3h8.5a2.3 2.3 0 012.3 2.3v6.001c0 4.7-2.299 6.9-7.099 6.9zM254.641 42.4h-11.4a2.3 2.3 0 000 4.6h11.4a2.3 2.3 0 000-4.6z"/>
  </g>
  <circle cx="28.892" cy="28.62" r="12.67"/>
  <circle cx="28.892" cy="28.62" r="10.583" fill="#fff"/>
  <path fill="#fff" d="M17.936 3.195h20.272v5.913H17.936zM258.588 44.302l16.08-10.949c.971-.661 2.286.034 2.286 1.209v19.48c0 1.175-1.315 1.87-2.286 1.209l-16.08-10.949zM248.262 25.555c0 2.14 1.08 6.346-.322 7.748-1.402 1.402-5.287 0-7.426 0a7.748 7.748 0 117.748-7.748z"/>
  <path d="M262.589 25.555a7.748 7.748 0 01-7.748 7.748c-2.14 0-4.498 1.402-5.9 0-1.402-1.402-1.848-5.608-1.848-7.748a7.748 7.748 0 0115.496 0z" fill="#fff"/>
  <circle cx="254.841" cy="25.575" r="5.467"/>
  <circle cx="240.481" cy="25.575" r="5.467"/>
</svg>
